<?xml version="1.0" encoding="UTF-8" standalone="no"?>
<svg
   enable-background="new 0 0 32 32"
   id="Слой_1"
   version="1.1"
   viewBox="0 0 30.912064 12.116181"
   xml:space="preserve"
   sodipodi:docname="arrow.svg"
   width="30.912064"
   height="12.116181"
   inkscape:version="1.2.2 (732a01da63, 2022-12-09)"
   xmlns:inkscape="http://www.inkscape.org/namespaces/inkscape"
   xmlns:sodipodi="http://sodipodi.sourceforge.net/DTD/sodipodi-0.dtd"
   xmlns="http://www.w3.org/2000/svg"
   xmlns:svg="http://www.w3.org/2000/svg"><defs
     id="defs4907" /><sodipodi:namedview
     id="namedview4905"
     pagecolor="#ffffff"
     bordercolor="#000000"
     borderopacity="0.25"
     inkscape:showpageshadow="2"
     inkscape:pageopacity="0.0"
     inkscape:pagecheckerboard="0"
     inkscape:deskcolor="#d1d1d1"
     showgrid="false"
     inkscape:zoom="21.78125"
     inkscape:cx="14.852224"
     inkscape:cy="6.1520803"
     inkscape:window-width="1600"
     inkscape:window-height="837"
     inkscape:window-x="-8"
     inkscape:window-y="-8"
     inkscape:window-maximized="1"
     inkscape:current-layer="Слой_1" /><path
     clip-rule="evenodd"
     d="M 29.912063,5.5947448 H 2.0840628 L 6.4148017,1.3878275 c 0.391,-0.39099996 0.8501105,-0.84035576 0.4591105,-1.23035528 -0.391,-0.391 -0.8403558,0.0221994 -1.2303558,0.41319942 L 0.28875,5.7867448 c -0.385,0.385 -0.385,0.1107789 0,0.495779 l 5.2629843,5.2629852 c 0.3910001,0.391001 0.8403558,0.8042 1.2303558,0.4132 0.391,-0.391001 0.023712,-0.794445 -0.3672884,-1.184446 L 2.0840628,6.6765238 H 29.912063 c 0.552,0 1,0.011111 1,-0.5408895 0,-0.552 -0.448,-0.5408895 -1,-0.5408895 z"
     fill="#121313"
     fill-rule="evenodd"
     id="Arrow_Back"
     sodipodi:nodetypes="scccccsscccsss" /><g
     id="g4892"
     transform="translate(-1.1939372,-9.8643657)" /><g
     id="g4894"
     inkscape:label="g4894"
     transform="translate(-1.1939372,-9.8643657)" /><g
     id="g4896"
     inkscape:label="g4896"
     transform="translate(-1.1939372,-9.8643657)" /><g
     id="g4898"
     transform="translate(-1.1939372,-9.8643657)" /><g
     id="g4900"
     transform="translate(-1.1939372,-9.8643657)" /><g
     id="g4902"
     transform="translate(-1.1939372,-9.8643657)" /></svg>
