<?xml version="1.0" encoding="UTF-8"?>
<svg width="52" height="46.386" fill="none" version="1.1" viewBox="0 0 57.778 51.541" xmlns="http://www.w3.org/2000/svg">
 <path d="m56.49 11.645c-0.3981-0.5499-0.9213-0.9972-1.5264-1.305-0.6051-0.3077-1.2747-0.4671-1.9536-0.465h-40.47l-1.12-6c-0.1632-0.98922-0.6716-1.8886-1.435-2.5385-0.7634-0.64991-1.7324-1.0083-2.735-1.0115h-6c-0.33152 0-0.64947 0.1317-0.88389 0.36612s-0.36611 0.55236-0.36611 0.88388 0.13169 0.64946 0.36611 0.88388c0.23442 0.23443 0.55237 0.36612 0.88389 0.36612h6c0.408 0.00204 0.8026 0.14577 1.1164 0.40662 0.3137 0.26085 0.5271 0.6226 0.6036 1.0234l6.94 37.7c0.0578 0.2831 0.2119 0.5375 0.4362 0.7199 0.2243 0.1823 0.5048 0.2813 0.7938 0.2801h2.81c-0.4623 0.7131-0.752 1.5242-0.8462 2.3688-0.0942 0.8447 0.0096 1.6997 0.3034 2.4972s0.7693 1.5155 1.389 2.0972c0.6196 0.5817 1.3662 1.011 2.1807 1.2539 0.8144 0.2429 1.6742 0.2926 2.5113 0.1453 0.837-0.1473 1.6282-0.4876 2.3107-0.9939 0.6826-0.5064 1.2378-1.1648 1.6216-1.9231s0.5857-1.5956 0.5895-2.4454c0.0025-1.064-0.3032-2.106-0.88-3h5.61c-0.5353 0.8257-0.8379 1.7806-0.8759 2.764-0.038 0.9833 0.1899 1.9587 0.6599 2.8234 0.4699 0.8646 1.1644 1.5865 2.0102 2.0895 0.8458 0.5029 1.8117 0.7684 2.7958 0.7684s1.95-0.2655 2.7958-0.7684c0.8458-0.503 1.5403-1.2249 2.0102-2.0895 0.47-0.8647 0.6979-1.8401 0.6599-2.8234-0.038-0.9834-0.3406-1.9383-0.8759-2.764h1.73c0.3315 0 0.6495-0.1317 0.8839-0.3662 0.2344-0.2344 0.3661-0.5523 0.3661-0.8838 0-0.3316-0.1317-0.6495-0.3661-0.8839-0.2344-0.2345-0.5524-0.3661-0.8839-0.3661h-27.47l-0.9-4.9h29.46c0.8722 3e-4 1.7234-0.2671 2.4387-0.766 0.7154-0.499 1.2603-1.2055 1.5613-2.0241l6.27-17.25c0.2273-0.64 0.2987-1.3249 0.2083-1.998-0.0905-0.673-0.3401-1.3148-0.7283-1.872zm-29 34.31c0 0.5933-0.1759 1.1733-0.5056 1.6667-0.3296 0.4933-0.7982 0.8778-1.3464 1.1049-0.5481 0.2271-1.1513 0.2865-1.7333 0.1707-0.5819-0.1158-1.1165-0.4015-1.536-0.821-0.4196-0.4196-0.7053-0.9541-0.8211-1.5361-0.1157-0.5819-0.0563-1.1851 0.1708-1.7333 0.227-0.5482 0.6115-1.0167 1.1049-1.3464 0.4933-0.3296 1.0734-0.5055 1.6667-0.5055 0.3956-0.0027 0.7879 0.073 1.1542 0.2225 0.3663 0.1496 0.6994 0.3702 0.9801 0.649 0.2807 0.2789 0.5034 0.6105 0.6554 0.9758 0.1521 0.3652 0.2303 0.757 0.2303 1.1527zm14.79 0c0 0.5933-0.1759 1.1733-0.5056 1.6667-0.3296 0.4933-0.7982 0.8778-1.3464 1.1049-0.5481 0.2271-1.1513 0.2865-1.7333 0.1707-0.5819-0.1158-1.1165-0.4015-1.536-0.821-0.4196-0.4196-0.7053-0.9541-0.8211-1.5361-0.1157-0.5819-0.0563-1.1851 0.1708-1.7333 0.227-0.5482 0.6115-1.0167 1.1049-1.3464 0.4933-0.3296 1.0734-0.5055 1.6667-0.5055 0.3956-0.0027 0.7879 0.073 1.1542 0.2225 0.3663 0.1496 0.6994 0.3702 0.9801 0.649 0.2807 0.2789 0.5034 0.6105 0.6554 0.9758 0.1521 0.3652 0.2303 0.757 0.2303 1.1527zm12.37-31.27-6.27 17.24c-0.1228 0.3365-0.3459 0.6272-0.6392 0.8329-0.2933 0.2056-0.6426 0.3163-1.0008 0.3172h-29.92l-3.82-20.74h40c0.2806-0.0027 0.5577 0.0633 0.8069 0.1923 0.2493 0.129 0.4632 0.317 0.6231 0.5477 0.1649 0.2302 0.2711 0.4971 0.3095 0.7777 0.0383 0.2806 0.0076 0.5662-0.0895 0.8323z" fill="#000"/>
</svg>
