<?xml version="1.0" encoding="UTF-8"?>
<!-- Generator: Adobe Illustrator 21.0.0, SVG Export Plug-In . SVG Version: 6.00 Build 0)  -->
<svg width="51" height="51" version="1.1" viewBox="0 0 92.727 92.727" xml:space="preserve" xmlns="http://www.w3.org/2000/svg">
<g transform="translate(-2.6707 -1.8699)">
	<path d="m41.346 48.366c-7.64 0-13.855 6.214-13.855 13.852s6.215 13.852 13.855 13.852c7.636 0 13.849-6.214 13.849-13.852-1e-3 -7.638-6.213-13.852-13.849-13.852zm0 24.704c-5.986 0-10.855-4.868-10.855-10.852 0-5.983 4.87-10.852 10.855-10.852 5.982 0 10.849 4.868 10.849 10.852-1e-3 5.984-4.867 10.852-10.849 10.852z"/>
	<path d="m12.21 48.366c-0.829 0-1.5 0.671-1.5 1.5v24.704c0 0.829 0.671 1.5 1.5 1.5s1.5-0.671 1.5-1.5v-24.704c0-0.828-0.671-1.5-1.5-1.5z"/>
	<path d="m70.008 48.366c-0.829 0-1.5 0.671-1.5 1.5v24.704c0 0.829 0.671 1.5 1.5 1.5s1.5-0.671 1.5-1.5v-24.704c0-0.828-0.672-1.5-1.5-1.5z"/>
	<path d="m94.459 18.44h-72.85c-0.829 0-1.5 0.74097-1.5 1.6564v8.1142h-6.659c-0.829 0-1.5 0.74097-1.5 1.6564v9.0241h-7.364c-0.829 0-1.5 0.74097-1.5 1.6564v43.882c0 0.91544 0.671 1.6564 1.5 1.6564h72.85c0.829 0 1.5-0.74097 1.5-1.6564v-9.0241h7.364c0.829 0 1.5-0.74097 1.5-1.6564v-8.1186h6.659c0.829 0 1.5-0.74097 1.5-1.6564v-43.878c0-0.91323-0.672-1.6553-1.5-1.6553zm-18.523 64.334h-69.85v-40.569h69.85zm3-10.681v-31.545c0-0.91544-0.671-1.6564-1.5-1.6564h-62.486v-7.3677h69.85v40.569zm14.023-9.775h-5.159v-32.451c0-0.91544-0.671-1.6564-1.5-1.6564h-63.191v-6.4578h69.85z" stroke-width="1.0508"/>
</g>
</svg>
