<?xml version="1.0" encoding="UTF-8"?>
<svg width="50" height="50" version="1.1" viewBox="0 0 25.641 25.641" xmlns="http://www.w3.org/2000/svg">
 <g>
  <path d="m23.554 1.6254h-21.328c-1.178 0-2.132 0.955-2.132 2.133v13.868c0 1.178 0.955 2.133 2.132 2.133h14.968l4.226 4.226v-4.226h2.134c1.178 0 2.133-0.955 2.133-2.133v-13.868c0-1.178-0.955-2.133-2.133-2.133zm1.066 16.001c0 0.588-0.479 1.066-1.066 1.066h-3.2v2.718l-2.718-2.718h-15.41c-0.588 0-1.066-0.478-1.066-1.066v-13.868c0-0.588 0.479-1.066 1.066-1.066h21.328c0.588 0 1.066 0.478 1.066 1.066z"/>
  <path d="m12.55 9.6074c-0.589 0-1.066 0.478-1.066 1.066s0.477 1.066 1.066 1.066 1.066-0.477 1.066-1.066c0-0.588-0.477-1.066-1.066-1.066z"/>
  <path d="m16.815 9.6074c-0.589 0-1.066 0.478-1.066 1.066s0.477 1.066 1.066 1.066 1.066-0.477 1.066-1.066c0-0.588-0.477-1.066-1.066-1.066z"/>
  <path d="m8.3853 9.6074c-0.589 0-1.066 0.478-1.066 1.066s0.477 1.066 1.066 1.066 1.066-0.477 1.066-1.066c0-0.588-0.477-1.066-1.066-1.066z"/>
 </g>
</svg>
