<?xml version="1.0" encoding="UTF-8" standalone="no"?>
<svg
   width="26"
   height="18"
   viewBox="0 0 26 18"
   version="1.1"
   id="svg1071"
   sodipodi:docname="eye.svg"
   inkscape:version="1.2.2 (732a01da63, 2022-12-09)"
   xmlns:inkscape="http://www.inkscape.org/namespaces/inkscape"
   xmlns:sodipodi="http://sodipodi.sourceforge.net/DTD/sodipodi-0.dtd"
   xmlns="http://www.w3.org/2000/svg"
   xmlns:svg="http://www.w3.org/2000/svg"
   xmlns:rdf="http://www.w3.org/1999/02/22-rdf-syntax-ns#"
   xmlns:cc="http://creativecommons.org/ns#"
   xmlns:sketch="http://www.bohemiancoding.com/sketch/ns">
  <sodipodi:namedview
     id="namedview1073"
     pagecolor="#ffffff"
     bordercolor="#000000"
     borderopacity="0.25"
     inkscape:showpageshadow="2"
     inkscape:pageopacity="0.0"
     inkscape:pagecheckerboard="0"
     inkscape:deskcolor="#d1d1d1"
     showgrid="false"
     inkscape:zoom="19.8125"
     inkscape:cx="12.996845"
     inkscape:cy="8.9842271"
     inkscape:window-width="1600"
     inkscape:window-height="837"
     inkscape:window-x="-8"
     inkscape:window-y="-8"
     inkscape:window-maximized="1"
     inkscape:current-layer="svg1071" />
  <!-- Generator: Sketch 3.0.3 (7891) - http://www.bohemiancoding.com/sketch -->
  <desc
     id="desc1064">Created with Sketch.</desc>
  <defs
     id="defs1066" />
  <g
     id="Page-1"
     stroke="none"
     stroke-width="1"
     fill="none"
     fill-rule="evenodd"
     sketch:type="MSPage"
     transform="translate(-3,-7)">
    <g
       id="icon-21-eye-hidden"
       sketch:type="MSArtboardGroup"
       fill="#000000">
      <path
         d="M 8.1086989,20.891301 C 4.6172082,18.830115 3,16 3,16 3,16 7,9 16,9 c 1.304511,0 2.503975,0.1470647 3.601439,0.3985612 L 18.751902,10.248098 C 17.897148,10.090055 16.980093,10 16,10 8,10 4.1999512,16 4.1999512,16 c 0,0 1.5147769,2.391722 4.6449759,4.155073 l -0.7362282,0.736228 z m 4.2898621,1.710138 C 13.496025,22.852936 14.695489,23 16,23 c 9,-1e-6 13,-7 13,-7 0,0 -1.617208,-2.830114 -5.108699,-4.891301 l -0.736228,0.736228 C 26.285272,13.608278 27.800049,16 27.800049,16 27.800049,16 24,21.999999 16,22 15.019907,22 14.102852,21.90995 13.248098,21.751902 l -0.849537,0.849537 z m 7.500092,-7.500092 C 19.964966,15.390212 20,15.691014 20,16 c 0,2.209139 -1.790861,4 -4,4 -0.308986,0 -0.609788,-0.03503 -0.898653,-0.101347 L 16,19 c 0.767767,0 1.535534,-0.292893 2.12132,-0.87868 C 18.707107,17.535534 19,16.767767 19,16 l 0.898653,-0.898653 z m -3,-3 C 16.609788,12.035034 16.308986,12 16,12 c -2.209139,0 -4,1.790861 -4,4 0,0.308986 0.03503,0.609788 0.101347,0.898653 L 13,16 c 0,-0.767767 0.292893,-1.535534 0.87868,-2.12132 C 14.464466,13.292893 15.232233,13 16,13 l 0.898653,-0.898653 z M 24,7 7,24 8,25 25,8 Z"
         id="eye-hidden"
         sketch:type="MSShapeGroup" />
    </g>
  </g>
  <metadata
     id="metadata1488">
    <rdf:RDF>
      <cc:Work
         rdf:about="" />
    </rdf:RDF>
  </metadata>
</svg>
