<?xml version="1.0" encoding="UTF-8" standalone="no"?>
<!-- Generator: Adobe Illustrator 19.0.0, SVG Export Plug-In . SVG Version: 6.00 Build 0)  -->

<svg
   version="1.1"
   id="Capa_1"
   x="0px"
   y="0px"
   viewBox="0 0 51.997 51.997"
   style="enable-background:new 0 0 51.997 51.997;"
   xml:space="preserve"
   xmlns:xlink="http://www.w3.org/1999/xlink"
   xmlns="http://www.w3.org/2000/svg"
   xmlns:svg="http://www.w3.org/2000/svg"><defs
   id="defs1125"><linearGradient
     id="linearGradient1675"><stop
       style="stop-color:#800000;stop-opacity:1;"
       offset="0"
       id="stop1671" /><stop
       style="stop-color:#800000;stop-opacity:0;"
       offset="1"
       id="stop1673" /></linearGradient><linearGradient
     xlink:href="#linearGradient1675"
     id="linearGradient1677"
     x1="0.0002367078"
     y1="25.9985"
     x2="51.996946"
     y2="25.9985"
     gradientUnits="userSpaceOnUse" /></defs>
<g
   id="g1090"
   style="fill:#800000;fill-opacity:1;fill-rule:nonzero;stroke-width:1.00157;stroke-dasharray:none;image-rendering:auto">
	<path
   d="M 51.911,16.242 C 51.152,7.888 45.239,1.827 37.839,1.827 32.909,1.827 28.395,4.48 25.855,8.732 23.338,4.425 19.009,1.826 14.158,1.826 6.759,1.826 0.845,7.887 0.087,16.241 c -0.06,0.369 -0.306,2.311 0.442,5.478 1.078,4.568 3.568,8.723 7.199,12.013 L 25.843,50.171 44.269,33.733 c 3.631,-3.291 6.121,-7.445 7.199,-12.014 0.748,-3.166 0.502,-5.108 0.443,-5.477 z m -2.39,5.019 c -0.984,4.172 -3.265,7.973 -6.59,10.985 L 25.855,47.481 9.072,32.25 C 5.741,29.232 3.461,25.432 2.476,21.26 1.768,18.263 2.059,16.57 2.06,16.559 L 2.075,16.458 C 2.725,9.139 7.806,3.826 14.158,3.826 c 4.687,0 8.813,2.88 10.771,7.515 l 0.921,2.183 0.921,-2.183 c 1.927,-4.564 6.271,-7.514 11.069,-7.514 6.351,0 11.433,5.313 12.096,12.727 0.002,0.016 0.293,1.71 -0.415,4.707 z"
   id="path1088"
   style="fill:#800000;fill-opacity:1;fill-rule:nonzero;stroke-width:1.00157;stroke-dasharray:none" />
</g>
<g
   id="g1092">
</g>
<g
   id="g1094">
</g>
<g
   id="g1096">
</g>
<g
   id="g1098">
</g>
<g
   id="g1100">
</g>
<g
   id="g1102">
</g>
<g
   id="g1104">
</g>
<g
   id="g1106">
</g>
<g
   id="g1108">
</g>
<g
   id="g1110">
</g>
<g
   id="g1112">
</g>
<g
   id="g1114">
</g>
<g
   id="g1116">
</g>
<g
   id="g1118">
</g>
<g
   id="g1120">
</g>
<ellipse
   style="fill:#800000;fill-opacity:1;fill-rule:nonzero;stroke-width:1.11916;stroke-dasharray:none"
   id="path1731"
   cx="14.692027"
   cy="18.652487"
   rx="13.861609"
   ry="15.77796" /><ellipse
   style="fill:#800000;fill-opacity:1;fill-rule:nonzero;stroke-width:1.11916;stroke-dasharray:none"
   id="path1731-0"
   cx="37.241093"
   cy="18.908001"
   rx="13.861609"
   ry="15.77796" /><ellipse
   style="fill:#800000;fill-opacity:1;fill-rule:nonzero;stroke-width:1.25492;stroke-dasharray:none"
   id="path1731-4"
   cx="25.615229"
   cy="26.381773"
   rx="20.696596"
   ry="13.286703" /><rect
   style="fill:#800000;fill-opacity:1;fill-rule:nonzero;stroke-width:1.304;stroke-dasharray:none"
   id="rect1822"
   width="30.770426"
   height="15.779705"
   x="-53.443787"
   y="-18.924913"
   transform="matrix(-0.7457813,-0.66619086,0.7457813,-0.66619086,0,0)" /></svg>
