<?xml version="1.0" encoding="UTF-8" standalone="no"?>
<svg
   width="50"
   height="52.413013"
   viewBox="0 0 20.833333 21.838755"
   version="1.1"
   id="svg45491"
   sodipodi:docname="search_test_1.svg"
   inkscape:version="1.2.2 (732a01da63, 2022-12-09)"
   xmlns:inkscape="http://www.inkscape.org/namespaces/inkscape"
   xmlns:sodipodi="http://sodipodi.sourceforge.net/DTD/sodipodi-0.dtd"
   xmlns="http://www.w3.org/2000/svg"
   xmlns:svg="http://www.w3.org/2000/svg"
   xmlns:rdf="http://www.w3.org/1999/02/22-rdf-syntax-ns#"
   xmlns:cc="http://creativecommons.org/ns#"
   xmlns:dc="http://purl.org/dc/elements/1.1/"
   xmlns:sketch="http://www.bohemiancoding.com/sketch/ns">
  <sodipodi:namedview
     id="namedview45493"
     pagecolor="#ffffff"
     bordercolor="#000000"
     borderopacity="0.25"
     inkscape:showpageshadow="2"
     inkscape:pageopacity="0.0"
     inkscape:pagecheckerboard="0"
     inkscape:deskcolor="#d1d1d1"
     showgrid="false"
     inkscape:zoom="11.793537"
     inkscape:cx="20.646902"
     inkscape:cy="26.455168"
     inkscape:window-width="1600"
     inkscape:window-height="837"
     inkscape:window-x="-8"
     inkscape:window-y="-8"
     inkscape:window-maximized="1"
     inkscape:current-layer="svg45491" />
  <!-- Generator: Sketch 3.0.3 (7891) - http://www.bohemiancoding.com/sketch -->
  <title
     id="title45482">icon 111 search</title>
  <desc
     id="desc45484">Created with Sketch.</desc>
  <defs
     id="defs45486" />
  <g
     id="Page-1"
     stroke="none"
     stroke-width="1"
     fill="none"
     fill-rule="evenodd"
     sketch:type="MSPage"
     transform="translate(-6,-5)">
    <g
       id="icon-111-search"
       sketch:type="MSArtboardGroup"
       fill="#000000">
      <path
         d="M 19.427116,20.427116 C 18.03725,21.41748 16.336652,22 14.5,22 9.8055794,22 6,18.194421 6,13.5 6,8.8055794 9.8055794,5 14.5,5 c 4.694421,0 8.5,3.8055794 8.5,8.5 0,2.34721 -0.951395,4.47221 -2.489592,6.010408 l 5.997366,5.997366 C 26.782828,25.782828 26.776142,26.223858 26.5,26.5 c -0.278068,0.278068 -0.720377,0.279623 -0.992226,0.0078 z M 14.5,21 C 18.642136,21 22,17.642136 22,13.5 22,9.3578642 18.642136,6 14.5,6 10.357864,6 7,9.3578642 7,13.5 7,17.642136 10.357864,21 14.5,21 Z"
         id="search"
         sketch:type="MSShapeGroup" />
    </g>
  </g>
  <metadata
     id="metadata45975">
    <rdf:RDF>
      <cc:Work
         rdf:about="">
        <dc:title>icon 111 search</dc:title>
      </cc:Work>
    </rdf:RDF>
  </metadata>
</svg>
