<?xml version="1.0" encoding="UTF-8" standalone="no"?>
<svg
   viewBox="0 0 38.461538 38.461538"
   version="1.1"
   id="svg1079"
   sodipodi:docname="trash.svg"
   inkscape:version="1.2.2 (732a01da63, 2022-12-09)"
   width="50"
   height="50"
   xmlns:inkscape="http://www.inkscape.org/namespaces/inkscape"
   xmlns:sodipodi="http://sodipodi.sourceforge.net/DTD/sodipodi-0.dtd"
   xmlns="http://www.w3.org/2000/svg"
   xmlns:svg="http://www.w3.org/2000/svg">
  <defs
     id="defs1083" />
  <sodipodi:namedview
     id="namedview1081"
     pagecolor="#ffffff"
     bordercolor="#000000"
     borderopacity="0.25"
     inkscape:showpageshadow="2"
     inkscape:pageopacity="0.0"
     inkscape:pagecheckerboard="0"
     inkscape:deskcolor="#d1d1d1"
     showgrid="false"
     showguides="true"
     inkscape:zoom="7.5109156"
     inkscape:cx="33.21832"
     inkscape:cy="37.279077"
     inkscape:window-width="1600"
     inkscape:window-height="837"
     inkscape:window-x="-8"
     inkscape:window-y="-8"
     inkscape:window-maximized="1"
     inkscape:current-layer="Layer_20">
    <sodipodi:guide
       position="23.958051,24.511296"
       orientation="0,-1"
       id="guide1750"
       inkscape:locked="false" />
    <sodipodi:guide
       position="23.226,5.078654"
       orientation="0,-1"
       id="guide1752"
       inkscape:locked="false" />
  </sodipodi:namedview>
  <g
     id="Layer_20"
     data-name="Layer 20">
    <path
       d="m 35.47808,5.4972161 h -7.6607 V 1.631319 c 0,-0.82842698 -0.671573,-1.49999999 -1.5,-1.49999999 H 12.439037 c -0.828427,0 -1.5,0.67157301 -1.5,1.49999999 V 5.4972161 H 3.2783378 c -1.999999,0 -1.999999,1.5358969 0,1.5358969 h 1.93 v 26.006246 c 0.0055,3.028137 0.665004,5.280355 3.6931464,5.28035 H 30.001483 c 2.996866,-0.04367 3.541455,-2.41627 3.546596,-5.41345 V 7.033113 h 1.890001 c 1.999999,0.02667 2.039999,-1.5092299 0.04,-1.5358969 z M 12.541484,1.667216 H 26.281483 V 5.4972161 H 12.541484 Z m 19.869999,33.035897 c -0.0055,1.371282 -1.118707,2.480011 -2.49,2.48 H 8.8614842 c -1.3556604,-0.02177 -2.4447304,-1.124176 -2.4500004,-2.48 v -27.67 H 32.411483 Z"
       id="path1072"
       sodipodi:nodetypes="ccsssscsscccccccccccccccccccc" />
    <path
       d="m 16.010435,12.173812 c -0.828427,0 -0.901048,1.070874 -0.901048,1.899301 v 16.09 c 0,1.999999 1.802097,1.999999 1.802097,0 v -16.09 c 0,-0.828427 -0.07262,-1.899301 -0.901049,-1.899301 z"
       id="path1074"
       sodipodi:nodetypes="ssssss" />
    <path
       d="m 23.01581,12.103113 c -0.828427,0 -0.901048,1.070874 -0.901048,1.899301 v 16.09 c 0,1.999999 1.802096,1.999999 1.802096,0 v -16.09 c 0,-0.828427 -0.07262,-1.899301 -0.901048,-1.899301 z"
       id="path1074-5"
       sodipodi:nodetypes="ssssss" />
  </g>
</svg>
