<svg width="519" height="500" viewBox="0 0 519 500" fill="none" xmlns="http://www.w3.org/2000/svg">
<path d="M259.5 223C281.75 223 303.501 216.461 322.002 204.209C340.502 191.957 354.922 174.543 363.436 154.169C371.951 133.795 374.179 111.376 369.838 89.7475C365.497 68.1186 354.783 48.2512 339.049 32.6576C323.316 17.0641 303.27 6.44474 281.448 2.14249C259.625 -2.15976 237.005 0.0483066 216.448 8.48748C195.891 16.9266 178.321 31.2179 165.96 49.554C153.598 67.89 147 89.4474 147 111.5C147.046 141.058 158.913 169.392 180.001 190.292C201.089 211.193 229.677 222.955 259.5 223V223ZM259.5 22.8718C277.186 22.8718 294.475 28.0698 309.181 37.8084C323.886 47.547 335.348 61.3888 342.116 77.5835C348.884 93.7782 350.655 111.598 347.205 128.791C343.754 145.983 335.238 161.775 322.732 174.17C310.226 186.564 294.292 195.005 276.946 198.425C259.599 201.845 241.619 200.09 225.279 193.382C208.939 186.674 194.973 175.314 185.147 160.739C175.321 146.164 170.077 129.029 170.077 111.5C170.092 87.999 179.518 65.4649 196.285 48.8472C213.052 32.2294 235.788 22.887 259.5 22.8718V22.8718Z" fill="#231F20"/>
<path d="M259.5 229C192.781 228.924 128.597 254.515 80.2796 300.456C31.9621 346.397 3.22505 409.159 0.0374166 475.704C-0.143278 478.867 0.331864 482.034 1.43311 485.006C2.53437 487.978 4.23803 490.691 6.4375 492.976C8.59767 495.207 11.1873 496.98 14.0508 498.187C16.9143 499.394 19.9926 500.011 23.1008 500H495.899C499.016 499.996 502.099 499.361 504.963 498.134C507.827 496.907 510.412 495.113 512.563 492.861C514.762 490.576 516.466 487.863 517.567 484.891C518.668 481.919 519.143 478.752 518.963 475.589C515.746 409.064 486.997 346.332 438.682 300.414C390.368 254.497 326.2 228.923 259.5 229V229ZM282.217 253.124L263.594 271.72C263.058 272.26 262.42 272.688 261.717 272.98C261.015 273.272 260.261 273.423 259.5 273.423C258.739 273.423 257.985 273.272 257.283 272.98C256.58 272.688 255.942 272.26 255.406 271.72L236.783 253.124C244.278 252.433 251.831 252.03 259.5 252.03C267.169 252.03 274.722 252.433 282.217 253.124ZM23.1008 476.855C25.5921 425.003 45.1315 375.418 78.6944 335.774C112.257 296.13 157.971 268.639 208.761 257.557L239.204 288.013C241.882 290.694 245.064 292.821 248.566 294.272C252.069 295.724 255.823 296.471 259.615 296.471C263.407 296.471 267.162 295.724 270.665 294.272C274.167 292.821 277.348 290.694 280.026 288.013L310.47 257.557C361.235 268.689 406.911 296.216 440.431 335.879C473.95 375.542 493.445 425.13 495.899 476.97L23.1008 476.855Z" fill="#231F20"/>
</svg>
